<mxfile host="app.diagrams.net" agent="Mozilla/5.0 (Windows NT 10.0; Win64; x64) AppleWebKit/537.36 (KHTML, like Gecko) Chrome/135.0.0.0 Safari/537.36 OPR/120.0.0.0" version="28.0.9">
  <diagram name="Page-1" id="Dv1kKdyC4g7GNQqfZnpg">
    <mxGraphModel dx="1098" dy="690" grid="1" gridSize="10" guides="1" tooltips="1" connect="1" arrows="1" fold="1" page="1" pageScale="1" pageWidth="827" pageHeight="1169" math="0" shadow="0">
      <root>
        <mxCell id="0" />
        <mxCell id="1" parent="0" />
        <mxCell id="qSCaOLSRAcPuFHrcF1tN-1" style="edgeStyle=orthogonalEdgeStyle;rounded=0;orthogonalLoop=1;jettySize=auto;html=1;exitX=0.5;exitY=1;exitDx=0;exitDy=0;entryX=0.5;entryY=0;entryDx=0;entryDy=0;" edge="1" parent="1" source="qSCaOLSRAcPuFHrcF1tN-2" target="qSCaOLSRAcPuFHrcF1tN-12">
          <mxGeometry relative="1" as="geometry" />
        </mxCell>
        <mxCell id="qSCaOLSRAcPuFHrcF1tN-2" value="Robot Arm" style="rounded=0;whiteSpace=wrap;html=1;" vertex="1" parent="1">
          <mxGeometry x="280" y="299" width="120" height="60" as="geometry" />
        </mxCell>
        <mxCell id="qSCaOLSRAcPuFHrcF1tN-124" value="" style="edgeStyle=orthogonalEdgeStyle;rounded=0;orthogonalLoop=1;jettySize=auto;html=1;" edge="1" parent="1" source="qSCaOLSRAcPuFHrcF1tN-4" target="qSCaOLSRAcPuFHrcF1tN-97">
          <mxGeometry relative="1" as="geometry">
            <Array as="points">
              <mxPoint x="340" y="140" />
              <mxPoint x="340" y="140" />
            </Array>
          </mxGeometry>
        </mxCell>
        <mxCell id="qSCaOLSRAcPuFHrcF1tN-4" value="Start" style="ellipse;whiteSpace=wrap;html=1;" vertex="1" parent="1">
          <mxGeometry x="281" y="40" width="120" height="80" as="geometry" />
        </mxCell>
        <mxCell id="qSCaOLSRAcPuFHrcF1tN-5" value="move startposition:&lt;div&gt;&lt;br&gt;&lt;div&gt;robot move to startposition&lt;/div&gt;&lt;div&gt;&lt;br&gt;&lt;/div&gt;&lt;/div&gt;" style="rounded=0;whiteSpace=wrap;html=1;" vertex="1" parent="1">
          <mxGeometry x="400" y="299" width="180" height="60" as="geometry" />
        </mxCell>
        <mxCell id="qSCaOLSRAcPuFHrcF1tN-101" value="" style="edgeStyle=orthogonalEdgeStyle;rounded=0;orthogonalLoop=1;jettySize=auto;html=1;" edge="1" parent="1" source="qSCaOLSRAcPuFHrcF1tN-6" target="qSCaOLSRAcPuFHrcF1tN-18">
          <mxGeometry relative="1" as="geometry" />
        </mxCell>
        <mxCell id="qSCaOLSRAcPuFHrcF1tN-6" value="RobotArm" style="rounded=0;whiteSpace=wrap;html=1;" vertex="1" parent="1">
          <mxGeometry x="280" y="589" width="120" height="60" as="geometry" />
        </mxCell>
        <mxCell id="qSCaOLSRAcPuFHrcF1tN-7" value="move opentron:&lt;div&gt;robot arm moves from pick-up-station to opentrons&lt;/div&gt;" style="rounded=0;whiteSpace=wrap;html=1;" vertex="1" parent="1">
          <mxGeometry x="400" y="589" width="180" height="60" as="geometry" />
        </mxCell>
        <mxCell id="qSCaOLSRAcPuFHrcF1tN-8" style="edgeStyle=orthogonalEdgeStyle;rounded=0;orthogonalLoop=1;jettySize=auto;html=1;exitX=0.5;exitY=1;exitDx=0;exitDy=0;" edge="1" parent="1" source="qSCaOLSRAcPuFHrcF1tN-9" target="qSCaOLSRAcPuFHrcF1tN-6">
          <mxGeometry relative="1" as="geometry" />
        </mxCell>
        <mxCell id="qSCaOLSRAcPuFHrcF1tN-9" value="Robot Arm" style="rounded=0;whiteSpace=wrap;html=1;" vertex="1" parent="1">
          <mxGeometry x="280" y="499" width="120" height="60" as="geometry" />
        </mxCell>
        <mxCell id="qSCaOLSRAcPuFHrcF1tN-10" value="grip item:&lt;div&gt;gripper closes and hold this position&lt;/div&gt;" style="rounded=0;whiteSpace=wrap;html=1;" vertex="1" parent="1">
          <mxGeometry x="400" y="499" width="180" height="60" as="geometry" />
        </mxCell>
        <mxCell id="qSCaOLSRAcPuFHrcF1tN-11" style="edgeStyle=orthogonalEdgeStyle;rounded=0;orthogonalLoop=1;jettySize=auto;html=1;exitX=0.5;exitY=1;exitDx=0;exitDy=0;entryX=0.5;entryY=0;entryDx=0;entryDy=0;" edge="1" parent="1" source="qSCaOLSRAcPuFHrcF1tN-12" target="qSCaOLSRAcPuFHrcF1tN-9">
          <mxGeometry relative="1" as="geometry" />
        </mxCell>
        <mxCell id="qSCaOLSRAcPuFHrcF1tN-12" value="Robot Arm" style="rounded=0;whiteSpace=wrap;html=1;" vertex="1" parent="1">
          <mxGeometry x="280" y="389" width="120" height="60" as="geometry" />
        </mxCell>
        <mxCell id="qSCaOLSRAcPuFHrcF1tN-13" value="move pick-up-station:&lt;div&gt;robot move start to pick-up-station (ready to grip)&lt;/div&gt;" style="rounded=0;whiteSpace=wrap;html=1;" vertex="1" parent="1">
          <mxGeometry x="400" y="389" width="180" height="60" as="geometry" />
        </mxCell>
        <mxCell id="qSCaOLSRAcPuFHrcF1tN-14" value="&lt;b style=&quot;forced-color-adjust: none; color: rgb(0, 0, 0); font-family: Helvetica; font-size: 12px; font-style: normal; font-variant-ligatures: normal; font-variant-caps: normal; letter-spacing: normal; orphans: 2; text-align: center; text-indent: 0px; text-transform: none; widows: 2; word-spacing: 0px; -webkit-text-stroke-width: 0px; white-space: normal; background-color: rgb(236, 236, 236); text-decoration-thickness: initial; text-decoration-style: initial; text-decoration-color: initial;&quot;&gt;moveStarpositionRobot()&lt;/b&gt;" style="rounded=0;whiteSpace=wrap;html=1;" vertex="1" parent="1">
          <mxGeometry x="580" y="299" width="200" height="60" as="geometry" />
        </mxCell>
        <mxCell id="qSCaOLSRAcPuFHrcF1tN-15" value="&lt;b style=&quot;forced-color-adjust: none; color: rgb(0, 0, 0); font-family: Helvetica; font-size: 12px; font-style: normal; font-variant-ligatures: normal; font-variant-caps: normal; letter-spacing: normal; orphans: 2; text-align: center; text-indent: 0px; text-transform: none; widows: 2; word-spacing: 0px; -webkit-text-stroke-width: 0px; white-space: normal; background-color: rgb(236, 236, 236); text-decoration-thickness: initial; text-decoration-style: initial; text-decoration-color: initial;&quot;&gt;movePickupstationRobotarm(&lt;/b&gt;&lt;div&gt;&lt;b style=&quot;forced-color-adjust: none; color: rgb(0, 0, 0); font-family: Helvetica; font-size: 12px; font-style: normal; font-variant-ligatures: normal; font-variant-caps: normal; letter-spacing: normal; orphans: 2; text-align: center; text-indent: 0px; text-transform: none; widows: 2; word-spacing: 0px; -webkit-text-stroke-width: 0px; white-space: normal; background-color: rgb(236, 236, 236); text-decoration-thickness: initial; text-decoration-style: initial; text-decoration-color: initial;&quot;&gt;slot_numb_Pickup)&lt;/b&gt;&lt;/div&gt;" style="rounded=0;whiteSpace=wrap;html=1;" vertex="1" parent="1">
          <mxGeometry x="580" y="389" width="200" height="60" as="geometry" />
        </mxCell>
        <mxCell id="qSCaOLSRAcPuFHrcF1tN-16" value="&lt;b style=&quot;forced-color-adjust: none; color: rgb(0, 0, 0); font-family: Helvetica; font-size: 12px; font-style: normal; font-variant-ligatures: normal; font-variant-caps: normal; letter-spacing: normal; orphans: 2; text-align: center; text-indent: 0px; text-transform: none; widows: 2; word-spacing: 0px; -webkit-text-stroke-width: 0px; white-space: normal; background-color: rgb(236, 236, 236); text-decoration-thickness: initial; text-decoration-style: initial; text-decoration-color: initial;&quot;&gt;closeRobotgripper()&lt;/b&gt;" style="rounded=0;whiteSpace=wrap;html=1;" vertex="1" parent="1">
          <mxGeometry x="580" y="499" width="200" height="60" as="geometry" />
        </mxCell>
        <mxCell id="qSCaOLSRAcPuFHrcF1tN-102" value="" style="edgeStyle=orthogonalEdgeStyle;rounded=0;orthogonalLoop=1;jettySize=auto;html=1;" edge="1" parent="1" source="qSCaOLSRAcPuFHrcF1tN-18" target="qSCaOLSRAcPuFHrcF1tN-21">
          <mxGeometry relative="1" as="geometry" />
        </mxCell>
        <mxCell id="qSCaOLSRAcPuFHrcF1tN-18" value="Robot Arm" style="rounded=0;whiteSpace=wrap;html=1;" vertex="1" parent="1">
          <mxGeometry x="280" y="689" width="120" height="60" as="geometry" />
        </mxCell>
        <mxCell id="qSCaOLSRAcPuFHrcF1tN-19" value="release probe:&lt;div&gt;open gripper&lt;/div&gt;" style="rounded=0;whiteSpace=wrap;html=1;" vertex="1" parent="1">
          <mxGeometry x="400" y="689" width="180" height="60" as="geometry" />
        </mxCell>
        <mxCell id="qSCaOLSRAcPuFHrcF1tN-20" value="&lt;b style=&quot;forced-color-adjust: none; color: rgb(0, 0, 0); font-family: Helvetica; font-size: 12px; font-style: normal; font-variant-ligatures: normal; font-variant-caps: normal; letter-spacing: normal; orphans: 2; text-align: center; text-indent: 0px; text-transform: none; widows: 2; word-spacing: 0px; -webkit-text-stroke-width: 0px; white-space: normal; background-color: rgb(236, 236, 236); text-decoration-thickness: initial; text-decoration-style: initial; text-decoration-color: initial;&quot;&gt;openRobotgripper()&lt;/b&gt;" style="rounded=0;whiteSpace=wrap;html=1;" vertex="1" parent="1">
          <mxGeometry x="580" y="689" width="200" height="60" as="geometry" />
        </mxCell>
        <mxCell id="qSCaOLSRAcPuFHrcF1tN-21" value="Robot Arm" style="rounded=0;whiteSpace=wrap;html=1;" vertex="1" parent="1">
          <mxGeometry x="280" y="789" width="120" height="60" as="geometry" />
        </mxCell>
        <mxCell id="qSCaOLSRAcPuFHrcF1tN-22" value="moves safety:&lt;div&gt;robot arm move in safety position, uses axis 1 first&lt;/div&gt;" style="rounded=0;whiteSpace=wrap;html=1;" vertex="1" parent="1">
          <mxGeometry x="400" y="789" width="180" height="60" as="geometry" />
        </mxCell>
        <mxCell id="qSCaOLSRAcPuFHrcF1tN-23" value="&lt;b style=&quot;forced-color-adjust: none; color: rgb(0, 0, 0); font-family: Helvetica; font-size: 12px; font-style: normal; font-variant-ligatures: normal; font-variant-caps: normal; letter-spacing: normal; orphans: 2; text-align: center; text-indent: 0px; text-transform: none; widows: 2; word-spacing: 0px; -webkit-text-stroke-width: 0px; white-space: normal; background-color: rgb(236, 236, 236); text-decoration-thickness: initial; text-decoration-style: initial; text-decoration-color: initial;&quot;&gt;movesafetyRobotarm()&lt;/b&gt;" style="rounded=0;whiteSpace=wrap;html=1;" vertex="1" parent="1">
          <mxGeometry x="580" y="789" width="200" height="60" as="geometry" />
        </mxCell>
        <mxCell id="qSCaOLSRAcPuFHrcF1tN-122" value="" style="edgeStyle=orthogonalEdgeStyle;rounded=0;orthogonalLoop=1;jettySize=auto;html=1;" edge="1" parent="1" source="qSCaOLSRAcPuFHrcF1tN-24" target="qSCaOLSRAcPuFHrcF1tN-27">
          <mxGeometry relative="1" as="geometry" />
        </mxCell>
        <mxCell id="qSCaOLSRAcPuFHrcF1tN-24" value="Robot Arm" style="rounded=0;whiteSpace=wrap;html=1;" vertex="1" parent="1">
          <mxGeometry x="280" y="995" width="120" height="60" as="geometry" />
        </mxCell>
        <mxCell id="qSCaOLSRAcPuFHrcF1tN-25" value="move opentrons:&lt;div&gt;move from safety position to opentrons (ready to grip)&lt;/div&gt;" style="rounded=0;whiteSpace=wrap;html=1;" vertex="1" parent="1">
          <mxGeometry x="400" y="995" width="180" height="60" as="geometry" />
        </mxCell>
        <mxCell id="qSCaOLSRAcPuFHrcF1tN-26" value="&lt;b style=&quot;forced-color-adjust: none; color: rgb(0, 0, 0); font-family: Helvetica; font-size: 12px; font-style: normal; font-variant-ligatures: normal; font-variant-caps: normal; letter-spacing: normal; orphans: 2; text-align: center; text-indent: 0px; text-transform: none; widows: 2; word-spacing: 0px; -webkit-text-stroke-width: 0px; white-space: normal; background-color: rgb(236, 236, 236); text-decoration-thickness: initial; text-decoration-style: initial; text-decoration-color: initial;&quot;&gt;moveOpentronsRobotarm()&lt;/b&gt;" style="rounded=0;whiteSpace=wrap;html=1;" vertex="1" parent="1">
          <mxGeometry x="580" y="995" width="200" height="60" as="geometry" />
        </mxCell>
        <mxCell id="qSCaOLSRAcPuFHrcF1tN-121" value="" style="edgeStyle=orthogonalEdgeStyle;rounded=0;orthogonalLoop=1;jettySize=auto;html=1;" edge="1" parent="1" source="qSCaOLSRAcPuFHrcF1tN-27" target="qSCaOLSRAcPuFHrcF1tN-30">
          <mxGeometry relative="1" as="geometry" />
        </mxCell>
        <mxCell id="qSCaOLSRAcPuFHrcF1tN-27" value="Robot Arm" style="rounded=0;whiteSpace=wrap;html=1;" vertex="1" parent="1">
          <mxGeometry x="280" y="1109" width="120" height="60" as="geometry" />
        </mxCell>
        <mxCell id="qSCaOLSRAcPuFHrcF1tN-28" value="grip item:&lt;div&gt;gripper closes and hold this position&lt;/div&gt;" style="rounded=0;whiteSpace=wrap;html=1;" vertex="1" parent="1">
          <mxGeometry x="400" y="1109" width="180" height="60" as="geometry" />
        </mxCell>
        <mxCell id="qSCaOLSRAcPuFHrcF1tN-29" value="&lt;b style=&quot;color: rgb(0, 0, 0); background-color: rgb(236, 236, 236);&quot;&gt;closeRobotgripper()&lt;/b&gt;" style="rounded=0;whiteSpace=wrap;html=1;" vertex="1" parent="1">
          <mxGeometry x="580" y="1109" width="199" height="60" as="geometry" />
        </mxCell>
        <mxCell id="qSCaOLSRAcPuFHrcF1tN-120" value="" style="edgeStyle=orthogonalEdgeStyle;rounded=0;orthogonalLoop=1;jettySize=auto;html=1;" edge="1" parent="1" source="qSCaOLSRAcPuFHrcF1tN-30" target="qSCaOLSRAcPuFHrcF1tN-33">
          <mxGeometry relative="1" as="geometry" />
        </mxCell>
        <mxCell id="qSCaOLSRAcPuFHrcF1tN-30" value="Microscope" style="rounded=0;whiteSpace=wrap;html=1;" vertex="1" parent="1">
          <mxGeometry x="280" y="1209" width="120" height="60" as="geometry" />
        </mxCell>
        <mxCell id="qSCaOLSRAcPuFHrcF1tN-31" value="move safety:&lt;div&gt;microscope moves for receiving&lt;/div&gt;" style="rounded=0;whiteSpace=wrap;html=1;" vertex="1" parent="1">
          <mxGeometry x="400" y="1209" width="180" height="60" as="geometry" />
        </mxCell>
        <mxCell id="qSCaOLSRAcPuFHrcF1tN-32" value="&lt;b style=&quot;forced-color-adjust: none; color: rgb(0, 0, 0); font-family: Helvetica; font-size: 12px; font-style: normal; font-variant-ligatures: normal; font-variant-caps: normal; letter-spacing: normal; orphans: 2; text-align: center; text-indent: 0px; text-transform: none; widows: 2; word-spacing: 0px; -webkit-text-stroke-width: 0px; white-space: normal; background-color: rgb(236, 236, 236); text-decoration-thickness: initial; text-decoration-style: initial; text-decoration-color: initial;&quot;&gt;safetyMicroscope()&lt;/b&gt;" style="rounded=0;whiteSpace=wrap;html=1;" vertex="1" parent="1">
          <mxGeometry x="580" y="1209" width="200" height="60" as="geometry" />
        </mxCell>
        <mxCell id="qSCaOLSRAcPuFHrcF1tN-119" value="" style="edgeStyle=orthogonalEdgeStyle;rounded=0;orthogonalLoop=1;jettySize=auto;html=1;" edge="1" parent="1" source="qSCaOLSRAcPuFHrcF1tN-33" target="qSCaOLSRAcPuFHrcF1tN-36">
          <mxGeometry relative="1" as="geometry" />
        </mxCell>
        <mxCell id="qSCaOLSRAcPuFHrcF1tN-33" value="Robot Arm&amp;nbsp;" style="rounded=0;whiteSpace=wrap;html=1;" vertex="1" parent="1">
          <mxGeometry x="280" y="1315" width="120" height="60" as="geometry" />
        </mxCell>
        <mxCell id="qSCaOLSRAcPuFHrcF1tN-34" value="move microscope:&lt;div&gt;move to microscope (ready to release)&lt;/div&gt;" style="rounded=0;whiteSpace=wrap;html=1;" vertex="1" parent="1">
          <mxGeometry x="400" y="1315" width="180" height="60" as="geometry" />
        </mxCell>
        <mxCell id="qSCaOLSRAcPuFHrcF1tN-35" value="&lt;b style=&quot;forced-color-adjust: none; color: rgb(0, 0, 0); font-family: Helvetica; font-size: 12px; font-style: normal; font-variant-ligatures: normal; font-variant-caps: normal; letter-spacing: normal; orphans: 2; text-align: center; text-indent: 0px; text-transform: none; widows: 2; word-spacing: 0px; -webkit-text-stroke-width: 0px; white-space: normal; background-color: rgb(236, 236, 236); text-decoration-thickness: initial; text-decoration-style: initial; text-decoration-color: initial;&quot;&gt;moveMicroscopeRobotarm(int part_id, state_microscope)&lt;/b&gt;" style="rounded=0;whiteSpace=wrap;html=1;" vertex="1" parent="1">
          <mxGeometry x="580" y="1315" width="200" height="60" as="geometry" />
        </mxCell>
        <mxCell id="qSCaOLSRAcPuFHrcF1tN-118" value="" style="edgeStyle=orthogonalEdgeStyle;rounded=0;orthogonalLoop=1;jettySize=auto;html=1;" edge="1" parent="1" source="qSCaOLSRAcPuFHrcF1tN-36" target="qSCaOLSRAcPuFHrcF1tN-39">
          <mxGeometry relative="1" as="geometry" />
        </mxCell>
        <mxCell id="qSCaOLSRAcPuFHrcF1tN-36" value="Robot Arm" style="rounded=0;whiteSpace=wrap;html=1;" vertex="1" parent="1">
          <mxGeometry x="280" y="1419" width="120" height="60" as="geometry" />
        </mxCell>
        <mxCell id="qSCaOLSRAcPuFHrcF1tN-37" value="release probe:&lt;div&gt;open gripper&lt;/div&gt;" style="rounded=0;whiteSpace=wrap;html=1;" vertex="1" parent="1">
          <mxGeometry x="400" y="1419" width="180" height="60" as="geometry" />
        </mxCell>
        <mxCell id="qSCaOLSRAcPuFHrcF1tN-38" value="&lt;b style=&quot;color: rgb(0, 0, 0); background-color: rgb(236, 236, 236);&quot;&gt;releaseRobotgripper()&lt;/b&gt;" style="rounded=0;whiteSpace=wrap;html=1;" vertex="1" parent="1">
          <mxGeometry x="580" y="1419" width="200" height="60" as="geometry" />
        </mxCell>
        <mxCell id="qSCaOLSRAcPuFHrcF1tN-117" value="" style="edgeStyle=orthogonalEdgeStyle;rounded=0;orthogonalLoop=1;jettySize=auto;html=1;" edge="1" parent="1" source="qSCaOLSRAcPuFHrcF1tN-39" target="qSCaOLSRAcPuFHrcF1tN-42">
          <mxGeometry relative="1" as="geometry" />
        </mxCell>
        <mxCell id="qSCaOLSRAcPuFHrcF1tN-39" value="Robot Arm" style="rounded=0;whiteSpace=wrap;html=1;" vertex="1" parent="1">
          <mxGeometry x="280" y="1519" width="120" height="60" as="geometry" />
        </mxCell>
        <mxCell id="qSCaOLSRAcPuFHrcF1tN-40" value="moves safety:&lt;div&gt;robot arm move in safety position, uses axis 1 first&lt;/div&gt;" style="rounded=0;whiteSpace=wrap;html=1;" vertex="1" parent="1">
          <mxGeometry x="400" y="1519" width="180" height="60" as="geometry" />
        </mxCell>
        <mxCell id="qSCaOLSRAcPuFHrcF1tN-41" value="&lt;b style=&quot;color: rgb(0, 0, 0); background-color: rgb(236, 236, 236);&quot;&gt;movesafetyRobotarm()&lt;/b&gt;" style="rounded=0;whiteSpace=wrap;html=1;" vertex="1" parent="1">
          <mxGeometry x="580" y="1519" width="200" height="60" as="geometry" />
        </mxCell>
        <mxCell id="qSCaOLSRAcPuFHrcF1tN-42" value="Microscope" style="rounded=0;whiteSpace=wrap;html=1;" vertex="1" parent="1">
          <mxGeometry x="280" y="1619" width="120" height="60" as="geometry" />
        </mxCell>
        <mxCell id="qSCaOLSRAcPuFHrcF1tN-43" value="evaluate sample:&lt;div&gt;microscope evaluate sample&lt;/div&gt;&lt;div&gt;decision: i.O / n.i.O.&lt;/div&gt;" style="rounded=0;whiteSpace=wrap;html=1;" vertex="1" parent="1">
          <mxGeometry x="400" y="1619" width="180" height="60" as="geometry" />
        </mxCell>
        <mxCell id="qSCaOLSRAcPuFHrcF1tN-44" value="&lt;b style=&quot;forced-color-adjust: none; color: rgb(0, 0, 0); font-family: Helvetica; font-size: 12px; font-style: normal; font-variant-ligatures: normal; font-variant-caps: normal; letter-spacing: normal; orphans: 2; text-align: center; text-indent: 0px; text-transform: none; widows: 2; word-spacing: 0px; -webkit-text-stroke-width: 0px; white-space: normal; background-color: rgb(236, 236, 236); text-decoration-thickness: initial; text-decoration-style: initial; text-decoration-color: initial;&quot;&gt;evaluateMicroscope(part_id)&lt;/b&gt;&lt;div&gt;&lt;font color=&quot;#ededed&quot;&gt;&lt;span style=&quot;background-color: rgb(34, 34, 34);&quot;&gt;&lt;b&gt;return n.i.O.&lt;/b&gt;&lt;/span&gt;&lt;/font&gt;&lt;/div&gt;&lt;div&gt;&lt;font color=&quot;#ededed&quot;&gt;&lt;span style=&quot;background-color: rgb(34, 34, 34);&quot;&gt;&lt;b&gt;/&lt;/b&gt;&lt;/span&gt;&lt;/font&gt;&lt;/div&gt;&lt;div&gt;&lt;font color=&quot;#ededed&quot;&gt;&lt;span style=&quot;background-color: rgb(34, 34, 34);&quot;&gt;&lt;b&gt;return i.O.&lt;/b&gt;&lt;/span&gt;&lt;/font&gt;&lt;/div&gt;" style="rounded=0;whiteSpace=wrap;html=1;fillColor=default;strokeColor=default;" vertex="1" parent="1">
          <mxGeometry x="580" y="1619" width="200" height="60" as="geometry" />
        </mxCell>
        <mxCell id="qSCaOLSRAcPuFHrcF1tN-45" value="" style="edgeStyle=orthogonalEdgeStyle;rounded=0;orthogonalLoop=1;jettySize=auto;html=1;" edge="1" parent="1" source="qSCaOLSRAcPuFHrcF1tN-46" target="qSCaOLSRAcPuFHrcF1tN-50">
          <mxGeometry relative="1" as="geometry" />
        </mxCell>
        <mxCell id="qSCaOLSRAcPuFHrcF1tN-46" value="Microscope" style="rounded=0;whiteSpace=wrap;html=1;" vertex="1" parent="1">
          <mxGeometry x="280" y="1818" width="120" height="60" as="geometry" />
        </mxCell>
        <mxCell id="qSCaOLSRAcPuFHrcF1tN-47" value="move safety:&lt;div&gt;microscope moves for receiving&lt;/div&gt;" style="rounded=0;whiteSpace=wrap;html=1;" vertex="1" parent="1">
          <mxGeometry x="400" y="1818" width="180" height="60" as="geometry" />
        </mxCell>
        <mxCell id="qSCaOLSRAcPuFHrcF1tN-48" value="&lt;b style=&quot;color: rgb(0, 0, 0); background-color: rgb(236, 236, 236);&quot;&gt;safetyMicroscope()&lt;/b&gt;" style="rounded=0;whiteSpace=wrap;html=1;" vertex="1" parent="1">
          <mxGeometry x="580" y="1818" width="200" height="60" as="geometry" />
        </mxCell>
        <mxCell id="qSCaOLSRAcPuFHrcF1tN-49" value="" style="edgeStyle=orthogonalEdgeStyle;rounded=0;orthogonalLoop=1;jettySize=auto;html=1;" edge="1" parent="1" source="qSCaOLSRAcPuFHrcF1tN-50" target="qSCaOLSRAcPuFHrcF1tN-54">
          <mxGeometry relative="1" as="geometry" />
        </mxCell>
        <mxCell id="qSCaOLSRAcPuFHrcF1tN-50" value="Robot Arm" style="rounded=0;whiteSpace=wrap;html=1;" vertex="1" parent="1">
          <mxGeometry x="280" y="1914" width="120" height="60" as="geometry" />
        </mxCell>
        <mxCell id="qSCaOLSRAcPuFHrcF1tN-51" value="move opentrons:&lt;div&gt;move from safety position to microscope (ready to grip)&lt;/div&gt;" style="rounded=0;whiteSpace=wrap;html=1;" vertex="1" parent="1">
          <mxGeometry x="400" y="1914" width="180" height="60" as="geometry" />
        </mxCell>
        <mxCell id="qSCaOLSRAcPuFHrcF1tN-52" value="&lt;b style=&quot;color: rgb(0, 0, 0); background-color: rgb(236, 236, 236);&quot;&gt;moveMicroscopeRobotarm()&lt;/b&gt;" style="rounded=0;whiteSpace=wrap;html=1;" vertex="1" parent="1">
          <mxGeometry x="580" y="1914" width="200" height="60" as="geometry" />
        </mxCell>
        <mxCell id="qSCaOLSRAcPuFHrcF1tN-53" value="" style="edgeStyle=orthogonalEdgeStyle;rounded=0;orthogonalLoop=1;jettySize=auto;html=1;" edge="1" parent="1" source="qSCaOLSRAcPuFHrcF1tN-54" target="qSCaOLSRAcPuFHrcF1tN-65">
          <mxGeometry relative="1" as="geometry">
            <Array as="points">
              <mxPoint x="340" y="2098" />
              <mxPoint x="341" y="2098" />
            </Array>
          </mxGeometry>
        </mxCell>
        <mxCell id="qSCaOLSRAcPuFHrcF1tN-54" value="Robot Arm&amp;nbsp;" style="rounded=0;whiteSpace=wrap;html=1;" vertex="1" parent="1">
          <mxGeometry x="280" y="2018" width="120" height="60" as="geometry" />
        </mxCell>
        <mxCell id="qSCaOLSRAcPuFHrcF1tN-55" value="grip item:&lt;div&gt;gripper closes and hold this position&lt;/div&gt;" style="rounded=0;whiteSpace=wrap;html=1;" vertex="1" parent="1">
          <mxGeometry x="400" y="2018" width="180" height="60" as="geometry" />
        </mxCell>
        <mxCell id="qSCaOLSRAcPuFHrcF1tN-56" value="&lt;b style=&quot;forced-color-adjust: none; color: rgb(0, 0, 0); font-family: Helvetica; font-size: 12px; font-style: normal; font-variant-ligatures: normal; font-variant-caps: normal; letter-spacing: normal; orphans: 2; text-align: center; text-indent: 0px; text-transform: none; widows: 2; word-spacing: 0px; -webkit-text-stroke-width: 0px; white-space: normal; background-color: rgb(236, 236, 236); text-decoration-thickness: initial; text-decoration-style: initial; text-decoration-color: initial;&quot;&gt;closeRobotgripper()&lt;/b&gt;" style="rounded=0;whiteSpace=wrap;html=1;" vertex="1" parent="1">
          <mxGeometry x="580" y="2018" width="200" height="60" as="geometry" />
        </mxCell>
        <mxCell id="qSCaOLSRAcPuFHrcF1tN-123" value="" style="edgeStyle=orthogonalEdgeStyle;rounded=0;orthogonalLoop=1;jettySize=auto;html=1;" edge="1" parent="1" source="qSCaOLSRAcPuFHrcF1tN-57" target="qSCaOLSRAcPuFHrcF1tN-24">
          <mxGeometry relative="1" as="geometry" />
        </mxCell>
        <mxCell id="qSCaOLSRAcPuFHrcF1tN-57" value="Opentrons" style="rounded=0;whiteSpace=wrap;html=1;" vertex="1" parent="1">
          <mxGeometry x="281" y="889" width="120" height="60" as="geometry" />
        </mxCell>
        <mxCell id="qSCaOLSRAcPuFHrcF1tN-58" value="staining:&lt;div&gt;opentron take the sample and place it on the sample glas&lt;/div&gt;" style="rounded=0;whiteSpace=wrap;html=1;" vertex="1" parent="1">
          <mxGeometry x="401" y="889" width="180" height="60" as="geometry" />
        </mxCell>
        <mxCell id="qSCaOLSRAcPuFHrcF1tN-59" value="&lt;div&gt;&lt;b style=&quot;forced-color-adjust: none; color: rgb(0, 0, 0); font-family: Helvetica; font-size: 12px; font-style: normal; font-variant-ligatures: normal; font-variant-caps: normal; letter-spacing: normal; orphans: 2; text-align: center; text-indent: 0px; text-transform: none; widows: 2; word-spacing: 0px; -webkit-text-stroke-width: 0px; white-space: normal; text-decoration-thickness: initial; text-decoration-style: initial; text-decoration-color: initial; background-color: light-dark(#ffffff, var(--ge-dark-color, #121212));&quot;&gt;run_staining_protocol(part_id, slot_numb_opentron)&lt;/b&gt;&lt;/div&gt;" style="rounded=0;whiteSpace=wrap;html=1;" vertex="1" parent="1">
          <mxGeometry x="581" y="889" width="199" height="60" as="geometry" />
        </mxCell>
        <mxCell id="qSCaOLSRAcPuFHrcF1tN-60" value="" style="edgeStyle=orthogonalEdgeStyle;rounded=0;orthogonalLoop=1;jettySize=auto;html=1;" edge="1" parent="1" source="qSCaOLSRAcPuFHrcF1tN-61" target="qSCaOLSRAcPuFHrcF1tN-59">
          <mxGeometry relative="1" as="geometry" />
        </mxCell>
        <mxCell id="qSCaOLSRAcPuFHrcF1tN-61" value="Opentrons" style="rounded=0;whiteSpace=wrap;html=1;" vertex="1" parent="1">
          <mxGeometry x="879" y="889" width="120" height="60" as="geometry" />
        </mxCell>
        <mxCell id="qSCaOLSRAcPuFHrcF1tN-62" value="washing the probe for next step" style="rounded=0;whiteSpace=wrap;html=1;" vertex="1" parent="1">
          <mxGeometry x="999" y="889" width="180" height="60" as="geometry" />
        </mxCell>
        <mxCell id="qSCaOLSRAcPuFHrcF1tN-63" value="&lt;b style=&quot;forced-color-adjust: none; color: rgb(0, 0, 0); font-family: Helvetica; font-size: 12px; font-style: normal; font-variant-ligatures: normal; font-variant-caps: normal; letter-spacing: normal; orphans: 2; text-align: center; text-indent: 0px; text-transform: none; widows: 2; word-spacing: 0px; -webkit-text-stroke-width: 0px; white-space: normal; background-color: rgb(236, 236, 236); text-decoration-thickness: initial; text-decoration-style: initial; text-decoration-color: initial;&quot;&gt;run_washing_protocol()&lt;/b&gt;" style="rounded=0;whiteSpace=wrap;html=1;" vertex="1" parent="1">
          <mxGeometry x="1179" y="889" width="200" height="60" as="geometry" />
        </mxCell>
        <mxCell id="qSCaOLSRAcPuFHrcF1tN-64" value="" style="edgeStyle=orthogonalEdgeStyle;rounded=0;orthogonalLoop=1;jettySize=auto;html=1;" edge="1" parent="1" source="qSCaOLSRAcPuFHrcF1tN-65" target="qSCaOLSRAcPuFHrcF1tN-68">
          <mxGeometry relative="1" as="geometry" />
        </mxCell>
        <mxCell id="qSCaOLSRAcPuFHrcF1tN-65" value="Robot Arm" style="rounded=0;whiteSpace=wrap;html=1;" vertex="1" parent="1">
          <mxGeometry x="281" y="2118" width="120" height="60" as="geometry" />
        </mxCell>
        <mxCell id="qSCaOLSRAcPuFHrcF1tN-66" value="move drop-off-station:&lt;div&gt;robot arm move from microscope to drop-off-station&lt;/div&gt;" style="rounded=0;whiteSpace=wrap;html=1;" vertex="1" parent="1">
          <mxGeometry x="401" y="2118" width="180" height="60" as="geometry" />
        </mxCell>
        <mxCell id="qSCaOLSRAcPuFHrcF1tN-67" value="&lt;b style=&quot;forced-color-adjust: none; color: rgb(0, 0, 0); font-family: Helvetica; font-size: 12px; font-style: normal; font-variant-ligatures: normal; font-variant-caps: normal; letter-spacing: normal; orphans: 2; text-align: center; text-indent: 0px; text-transform: none; widows: 2; word-spacing: 0px; -webkit-text-stroke-width: 0px; white-space: normal; background-color: rgb(236, 236, 236); text-decoration-thickness: initial; text-decoration-style: initial; text-decoration-color: initial;&quot;&gt;moveDropoffstationRobotarm(&lt;/b&gt;&lt;div&gt;&lt;b style=&quot;forced-color-adjust: none; color: rgb(0, 0, 0); font-family: Helvetica; font-size: 12px; font-style: normal; font-variant-ligatures: normal; font-variant-caps: normal; letter-spacing: normal; orphans: 2; text-align: center; text-indent: 0px; text-transform: none; widows: 2; word-spacing: 0px; -webkit-text-stroke-width: 0px; white-space: normal; background-color: rgb(236, 236, 236); text-decoration-thickness: initial; text-decoration-style: initial; text-decoration-color: initial;&quot;&gt;part_id, slot_numb_dropoff)&lt;/b&gt;&lt;/div&gt;" style="rounded=0;whiteSpace=wrap;html=1;" vertex="1" parent="1">
          <mxGeometry x="581" y="2118" width="200" height="60" as="geometry" />
        </mxCell>
        <mxCell id="qSCaOLSRAcPuFHrcF1tN-68" value="Robot Arm" style="rounded=0;whiteSpace=wrap;html=1;" vertex="1" parent="1">
          <mxGeometry x="281" y="2218" width="120" height="60" as="geometry" />
        </mxCell>
        <mxCell id="qSCaOLSRAcPuFHrcF1tN-69" value="release probe:&lt;div&gt;open gripper&lt;/div&gt;" style="rounded=0;whiteSpace=wrap;html=1;" vertex="1" parent="1">
          <mxGeometry x="401" y="2218" width="180" height="60" as="geometry" />
        </mxCell>
        <mxCell id="qSCaOLSRAcPuFHrcF1tN-70" value="&lt;b style=&quot;forced-color-adjust: none; color: rgb(0, 0, 0); font-family: Helvetica; font-size: 12px; font-style: normal; font-variant-ligatures: normal; font-variant-caps: normal; letter-spacing: normal; orphans: 2; text-align: center; text-indent: 0px; text-transform: none; widows: 2; word-spacing: 0px; -webkit-text-stroke-width: 0px; white-space: normal; background-color: rgb(236, 236, 236); text-decoration-thickness: initial; text-decoration-style: initial; text-decoration-color: initial;&quot;&gt;openRobotgripper()&lt;/b&gt;" style="rounded=0;whiteSpace=wrap;html=1;" vertex="1" parent="1">
          <mxGeometry x="581" y="2218" width="200" height="60" as="geometry" />
        </mxCell>
        <mxCell id="qSCaOLSRAcPuFHrcF1tN-71" value="" style="endArrow=classic;html=1;rounded=0;edgeStyle=orthogonalEdgeStyle;entryX=0.5;entryY=0;entryDx=0;entryDy=0;exitX=0.25;exitY=1;exitDx=0;exitDy=0;" edge="1" parent="1" source="qSCaOLSRAcPuFHrcF1tN-44" target="qSCaOLSRAcPuFHrcF1tN-78">
          <mxGeometry relative="1" as="geometry">
            <mxPoint x="781" y="1911" as="sourcePoint" />
            <mxPoint x="941" y="1581" as="targetPoint" />
            <Array as="points">
              <mxPoint x="630" y="1700" />
              <mxPoint x="491" y="1700" />
            </Array>
          </mxGeometry>
        </mxCell>
        <mxCell id="qSCaOLSRAcPuFHrcF1tN-72" value="n.i.O" style="edgeLabel;resizable=0;html=1;;align=center;verticalAlign=middle;" connectable="0" vertex="1" parent="qSCaOLSRAcPuFHrcF1tN-71">
          <mxGeometry relative="1" as="geometry" />
        </mxCell>
        <mxCell id="qSCaOLSRAcPuFHrcF1tN-75" value="" style="endArrow=classic;html=1;rounded=0;edgeStyle=orthogonalEdgeStyle;exitX=1;exitY=0.5;exitDx=0;exitDy=0;entryX=1;entryY=0.5;entryDx=0;entryDy=0;" edge="1" parent="1" source="qSCaOLSRAcPuFHrcF1tN-70" target="qSCaOLSRAcPuFHrcF1tN-4">
          <mxGeometry width="50" height="50" relative="1" as="geometry">
            <mxPoint x="870" y="2189" as="sourcePoint" />
            <mxPoint x="760" y="90" as="targetPoint" />
            <Array as="points">
              <mxPoint x="1640" y="2248" />
              <mxPoint x="1640" y="80" />
            </Array>
          </mxGeometry>
        </mxCell>
        <mxCell id="qSCaOLSRAcPuFHrcF1tN-115" value="" style="edgeStyle=orthogonalEdgeStyle;rounded=0;orthogonalLoop=1;jettySize=auto;html=1;" edge="1" parent="1" source="qSCaOLSRAcPuFHrcF1tN-77" target="qSCaOLSRAcPuFHrcF1tN-46">
          <mxGeometry relative="1" as="geometry" />
        </mxCell>
        <mxCell id="qSCaOLSRAcPuFHrcF1tN-77" value="Arkitekt" style="rounded=0;whiteSpace=wrap;html=1;" vertex="1" parent="1">
          <mxGeometry x="281" y="1720" width="120" height="60" as="geometry" />
        </mxCell>
        <mxCell id="qSCaOLSRAcPuFHrcF1tN-78" value="partLoopControl(int partnumber, loop_count, 0)" style="rounded=0;whiteSpace=wrap;html=1;" vertex="1" parent="1">
          <mxGeometry x="401" y="1720" width="180" height="60" as="geometry" />
        </mxCell>
        <mxCell id="qSCaOLSRAcPuFHrcF1tN-80" value="partLoopControl(int part_id, loop_count, 1)" style="rounded=0;whiteSpace=wrap;html=1;" vertex="1" parent="1">
          <mxGeometry x="581" y="1720" width="199" height="60" as="geometry" />
        </mxCell>
        <mxCell id="qSCaOLSRAcPuFHrcF1tN-96" value="&lt;b style=&quot;forced-color-adjust: none; color: rgb(0, 0, 0); font-family: Helvetica; font-size: 12px; font-style: normal; font-variant-ligatures: normal; font-variant-caps: normal; letter-spacing: normal; orphans: 2; text-align: center; text-indent: 0px; text-transform: none; widows: 2; word-spacing: 0px; -webkit-text-stroke-width: 0px; white-space: normal; background-color: rgb(236, 236, 236); text-decoration-thickness: initial; text-decoration-style: initial; text-decoration-color: initial;&quot;&gt;moveToOpentrons(part_id, slot_numb_opentron, state_opentron)&lt;/b&gt;" style="rounded=0;whiteSpace=wrap;html=1;" vertex="1" parent="1">
          <mxGeometry x="581" y="589" width="200" height="60" as="geometry" />
        </mxCell>
        <mxCell id="qSCaOLSRAcPuFHrcF1tN-100" value="" style="edgeStyle=orthogonalEdgeStyle;rounded=0;orthogonalLoop=1;jettySize=auto;html=1;" edge="1" parent="1" source="qSCaOLSRAcPuFHrcF1tN-97" target="qSCaOLSRAcPuFHrcF1tN-2">
          <mxGeometry relative="1" as="geometry" />
        </mxCell>
        <mxCell id="qSCaOLSRAcPuFHrcF1tN-97" value="Arkitekt" style="rounded=0;whiteSpace=wrap;html=1;" vertex="1" parent="1">
          <mxGeometry x="280" y="201" width="120" height="60" as="geometry" />
        </mxCell>
        <mxCell id="qSCaOLSRAcPuFHrcF1tN-98" value="&lt;div&gt;&lt;div&gt;determine slot_numb_Pickup (slot number on pickup station) and the part_id&lt;/div&gt;&lt;/div&gt;" style="rounded=0;whiteSpace=wrap;html=1;" vertex="1" parent="1">
          <mxGeometry x="400" y="201" width="180" height="60" as="geometry" />
        </mxCell>
        <mxCell id="qSCaOLSRAcPuFHrcF1tN-99" value="&lt;b style=&quot;forced-color-adjust: none; color: rgb(0, 0, 0); font-family: Helvetica; font-size: 12px; font-style: normal; font-variant-ligatures: normal; font-variant-caps: normal; letter-spacing: normal; orphans: 2; text-align: center; text-indent: 0px; text-transform: none; widows: 2; word-spacing: 0px; -webkit-text-stroke-width: 0px; white-space: normal; background-color: rgb(236, 236, 236); text-decoration-thickness: initial; text-decoration-style: initial; text-decoration-color: initial;&quot;&gt;initializeNewParts()&lt;/b&gt;" style="rounded=0;whiteSpace=wrap;html=1;" vertex="1" parent="1">
          <mxGeometry x="580" y="201" width="200" height="60" as="geometry" />
        </mxCell>
        <mxCell id="qSCaOLSRAcPuFHrcF1tN-109" value="" style="endArrow=classic;html=1;rounded=0;edgeStyle=orthogonalEdgeStyle;entryX=0.75;entryY=0;entryDx=0;entryDy=0;exitX=0.75;exitY=1;exitDx=0;exitDy=0;" edge="1" parent="1" source="qSCaOLSRAcPuFHrcF1tN-44" target="qSCaOLSRAcPuFHrcF1tN-80">
          <mxGeometry relative="1" as="geometry">
            <mxPoint x="780.0000000000005" y="1926" as="sourcePoint" />
            <mxPoint x="1260" y="1552" as="targetPoint" />
            <Array as="points">
              <mxPoint x="730" y="1710" />
              <mxPoint x="730" y="1710" />
            </Array>
          </mxGeometry>
        </mxCell>
        <mxCell id="qSCaOLSRAcPuFHrcF1tN-110" value="i.O" style="edgeLabel;resizable=0;html=1;;align=center;verticalAlign=middle;" connectable="0" vertex="1" parent="qSCaOLSRAcPuFHrcF1tN-109">
          <mxGeometry relative="1" as="geometry" />
        </mxCell>
        <mxCell id="qSCaOLSRAcPuFHrcF1tN-125" value="" style="endArrow=classic;html=1;rounded=0;edgeStyle=orthogonalEdgeStyle;entryX=0.5;entryY=0;entryDx=0;entryDy=0;exitX=1;exitY=0.5;exitDx=0;exitDy=0;" edge="1" parent="1" source="qSCaOLSRAcPuFHrcF1tN-23" target="qSCaOLSRAcPuFHrcF1tN-61">
          <mxGeometry relative="1" as="geometry">
            <mxPoint x="860" y="820" as="sourcePoint" />
            <mxPoint x="860" y="861" as="targetPoint" />
            <Array as="points">
              <mxPoint x="939" y="819" />
            </Array>
          </mxGeometry>
        </mxCell>
        <mxCell id="qSCaOLSRAcPuFHrcF1tN-126" value="loop_count&amp;gt;=1" style="edgeLabel;resizable=0;html=1;;align=center;verticalAlign=middle;" connectable="0" vertex="1" parent="qSCaOLSRAcPuFHrcF1tN-125">
          <mxGeometry relative="1" as="geometry" />
        </mxCell>
        <mxCell id="qSCaOLSRAcPuFHrcF1tN-127" value="" style="endArrow=classic;html=1;rounded=0;edgeStyle=orthogonalEdgeStyle;entryX=0.5;entryY=0;entryDx=0;entryDy=0;exitX=0.5;exitY=1;exitDx=0;exitDy=0;" edge="1" parent="1" source="qSCaOLSRAcPuFHrcF1tN-21" target="qSCaOLSRAcPuFHrcF1tN-57">
          <mxGeometry relative="1" as="geometry">
            <mxPoint x="960" y="1050" as="sourcePoint" />
            <mxPoint x="960" y="1091" as="targetPoint" />
            <Array as="points">
              <mxPoint x="341" y="849" />
            </Array>
          </mxGeometry>
        </mxCell>
        <mxCell id="qSCaOLSRAcPuFHrcF1tN-128" value="loop_count==0" style="edgeLabel;resizable=0;html=1;;align=center;verticalAlign=middle;" connectable="0" vertex="1" parent="qSCaOLSRAcPuFHrcF1tN-127">
          <mxGeometry relative="1" as="geometry" />
        </mxCell>
        <mxCell id="qSCaOLSRAcPuFHrcF1tN-129" value="" style="endArrow=classic;html=1;rounded=0;edgeStyle=orthogonalEdgeStyle;exitX=1;exitY=0.5;exitDx=0;exitDy=0;entryX=1;entryY=0.5;entryDx=0;entryDy=0;" edge="1" parent="1" source="qSCaOLSRAcPuFHrcF1tN-56" target="qSCaOLSRAcPuFHrcF1tN-96">
          <mxGeometry relative="1" as="geometry">
            <mxPoint x="1080" y="1590" as="sourcePoint" />
            <mxPoint x="790" y="620" as="targetPoint" />
            <Array as="points">
              <mxPoint x="1470" y="2048" />
              <mxPoint x="1470" y="620" />
              <mxPoint x="781" y="620" />
            </Array>
          </mxGeometry>
        </mxCell>
        <mxCell id="qSCaOLSRAcPuFHrcF1tN-130" value="loop" style="edgeLabel;resizable=0;html=1;;align=center;verticalAlign=middle;" connectable="0" vertex="1" parent="qSCaOLSRAcPuFHrcF1tN-129">
          <mxGeometry relative="1" as="geometry" />
        </mxCell>
        <mxCell id="qSCaOLSRAcPuFHrcF1tN-133" value="" style="endArrow=classic;html=1;rounded=0;exitX=0.5;exitY=1;exitDx=0;exitDy=0;entryX=1;entryY=0.5;entryDx=0;entryDy=0;" edge="1" parent="1" source="qSCaOLSRAcPuFHrcF1tN-61" target="qSCaOLSRAcPuFHrcF1tN-26">
          <mxGeometry width="50" height="50" relative="1" as="geometry">
            <mxPoint x="900" y="1040" as="sourcePoint" />
            <mxPoint x="950" y="990" as="targetPoint" />
            <Array as="points">
              <mxPoint x="940" y="1025" />
            </Array>
          </mxGeometry>
        </mxCell>
      </root>
    </mxGraphModel>
  </diagram>
</mxfile>
